<svg width="16" height="16" viewBox="0 0 16 16" fill="none" xmlns="http://www.w3.org/2000/svg">
    <path
        d="M11.6654 9.33325C12.954 9.33325 13.9987 10.3779 13.9987 11.6666C13.9987 12.9552 12.954 13.9999 11.6654 13.9999C10.3767 13.9999 9.33203 12.9552 9.33203 11.6666C9.33203 10.3779 10.3767 9.33325 11.6654 9.33325Z"
        stroke="white" stroke-width="1.5" />
    <path
        d="M4.33333 9.33325C5.622 9.33325 6.66667 10.3779 6.66667 11.6666C6.66667 12.9552 5.622 13.9999 4.33333 13.9999C3.04467 13.9999 2 12.9552 2 11.6666C2 10.3779 3.04467 9.33325 4.33333 9.33325Z"
        stroke="white" stroke-width="1.5" />
    <path
        d="M11.6654 2C12.954 2 13.9987 3.04467 13.9987 4.33333C13.9987 5.622 12.954 6.66667 11.6654 6.66667C10.3767 6.66667 9.33203 5.622 9.33203 4.33333C9.33203 3.04467 10.3767 2 11.6654 2Z"
        stroke="white" stroke-width="1.5" />
    <path
        d="M4.33333 2C5.622 2 6.66667 3.04467 6.66667 4.33333C6.66667 5.622 5.622 6.66667 4.33333 6.66667C3.04467 6.66667 2 5.622 2 4.33333C2 3.04467 3.04467 2 4.33333 2Z"
        stroke="white" stroke-width="1.5" />
</svg>